# xmcd
#
# Track frame offsets:
#	150
#	20010
#	34245
#	55990
#	71797
#
# Disc length: 1392 seconds
#
# Revision: 0
# Processed by: cddbd v1.5.2PL0 Copyright (c) Steve Scherf et al.
# Submitted via: EasyCDDAExtractor 2010.6.0.0
#
DISCID=45056e05
DTITLE=Skycycle - Breathing Water (EP)
DYEAR=1998
DGENRE=Alternative Metal
TTITLE0=Radioactive
TTITLE1=Last Girl On Earth
TTITLE2=Happy
TTITLE3=Junior
TTITLE4=Toast
EXTD=
EXTT0=
EXTT1=
EXTT2=
EXTT3=
EXTT4=
PLAYORDER=
